<?xml version="1.0" encoding="UTF-8" standalone="no"?>
<!-- Created with Inkscape (http://www.inkscape.org/) -->

<svg
   xmlns:dc="http://purl.org/dc/elements/1.1/"
   xmlns:cc="http://creativecommons.org/ns#"
   xmlns:rdf="http://www.w3.org/1999/02/22-rdf-syntax-ns#"
   xmlns:svg="http://www.w3.org/2000/svg"
   xmlns="http://www.w3.org/2000/svg"
   xmlns:sodipodi="http://sodipodi.sourceforge.net/DTD/sodipodi-0.dtd"
   xmlns:inkscape="http://www.inkscape.org/namespaces/inkscape"
   width="744.09448819"
   height="1052.3622047"
   id="svg2"
   sodipodi:version="0.32"
   inkscape:version="0.47pre4 r22446"
   sodipodi:docname="camel3.svg"
   inkscape:output_extension="org.inkscape.output.svg.inkscape"
   inkscape:export-filename="/home/jv/SPPN/camel3.png"
   inkscape:export-xdpi="118.92753"
   inkscape:export-ydpi="118.92753"
   version="1.1">
  <defs
     id="defs4">
    <inkscape:perspective
       sodipodi:type="inkscape:persp3d"
       inkscape:vp_x="0 : 526.18109 : 1"
       inkscape:vp_y="0 : 1000 : 0"
       inkscape:vp_z="744.09448 : 526.18109 : 1"
       inkscape:persp3d-origin="372.04724 : 350.78739 : 1"
       id="perspective4319" />
  </defs>
  <sodipodi:namedview
     id="base"
     pagecolor="#ffffff"
     bordercolor="#666666"
     borderopacity="1.0"
     gridtolerance="10000"
     guidetolerance="10"
     objecttolerance="10"
     inkscape:pageopacity="0.0"
     inkscape:pageshadow="2"
     inkscape:zoom="0.70710678"
     inkscape:cx="112.18492"
     inkscape:cy="403.93502"
     inkscape:document-units="px"
     inkscape:current-layer="layer2"
     inkscape:window-width="1920"
     inkscape:window-height="1006"
     inkscape:window-x="1280"
     inkscape:window-y="25"
     showgrid="false"
     inkscape:window-maximized="1" />
  <metadata
     id="metadata7">
    <rdf:RDF>
      <cc:Work
         rdf:about="">
        <dc:format>image/svg+xml</dc:format>
        <dc:type
           rdf:resource="http://purl.org/dc/dcmitype/StillImage" />
        <dc:title></dc:title>
      </cc:Work>
    </rdf:RDF>
  </metadata>
  <g
     inkscape:groupmode="layer"
     id="layer2"
     inkscape:label="Outline"
     style="display:inline">
    <path
       id="path4335"
       style="fill:#002329;fill-opacity:1;stroke:none;display:inline"
       d="m 384.44608,193.5625 c -0.86194,-0.0249 -1.46653,0.0347 -1.65625,0.21875 -0.4915,0.47675 -0.90776,3.94399 -0.9375,7.6875 -0.0992,12.48602 6.92389,23.16425 21,31.9375 4.04988,2.52418 10.83611,5.67523 15.09375,7.03125 8.24348,2.62549 22.02983,3.84096 28.25,2.46875 8.33343,-1.83841 16.67821,-7.0742 21.03125,-13.1875 l 2.0625,-2.90625 c 0,0 -6.2571,-3.12478 -12.53125,-6.25 -6.27414,-3.12523 -12.56249,-6.24999 -12.5625,-6.25 l -1.625,2.34375 c -2.55132,3.64252 -7.17915,5.875 -16.59375,5.875 -10.40968,0 -17.46446,-3.06344 -23,-8.46875 -4.09105,-3.9948 -7.44677,-12.61371 -6.3125,-16.1875 0.52163,-1.64352 -0.30149,-2.07365 -6.1875,-3.40625 -2.39966,-0.54329 -4.59469,-0.86468 -6.03125,-0.90625 z m -87.8125,38.875 c -2.23031,-0.0275 -4.79099,0.21536 -7,1.21875 -2.22655,1.01136 -5.18196,2.90468 -6.59375,4.21875 -4.50492,4.19307 -11.84377,13.23798 -11.84375,14.59375 0,1.39045 0.66761,1.6486 1.9375,0.84375 1.37837,-0.8736 3.45176,-3.01929 6.21875,-6.40625 7.69803,-9.4229 12.32674,-11.60078 22.40625,-10.65625 6.2785,0.58834 7.43751,0.45639 7.4375,-0.8125 0,-1.61202 -5.40345,-2.52471 -7.4375,-2.625 -0.99599,-0.0491 -2.89469,-0.3475 -5.125,-0.375 z m 63.53125,54.53125 c -0.6398,0.0591 -1.46521,0.97651 -1.9375,2.21875 -0.53977,1.4197 -1.09099,1.96874 -1.875,1.96875 -2.3456,0 -18.09054,8.03422 -31.28125,15.625 -15.44455,8.88777 -30.17299,14.57258 -44.25,17.0625 -13.99446,2.47533 -19.78796,2.50349 -21.96875,0.0937 -3.07803,-3.40118 -4.81792,-11.81933 -4.46875,-21.53125 0.27718,-7.71025 0.0791,-9.13058 -1.28125,-9.40625 -1.27164,-0.25768 -1.97146,1.39305 -3.28125,7.96875 -2.57958,12.95036 -3.35796,15.15106 -7.1875,19.625 -4.25211,4.96764 -7.06245,5.33595 -11.96875,1.59375 -3.69245,-2.81637 -6.13726,-2.528 -4.5,0.53125 1.27701,2.38611 7.55223,6.03601 10.34375,6.03125 3.74886,-0.006 8.29088,-3.57277 11.40625,-8.96875 l 2.96875,-5.15625 1.28125,4.5625 c 0.70351,2.51268 2.34643,5.68293 3.625,7.0625 2.14257,2.31187 3.03955,2.85566 10.6875,2.75 4.56376,-0.063 11.36591,-0.8924 15.78125,-1.5 18.79249,-2.58603 36.09874,-11.77427 42.09375,-14.96875 6.65493,-3.54613 28.76687,-15.52184 30.5,-16.3125 4.19647,-1.91446 4.10671,-1.94528 5.78125,2.0625 1.48351,3.55053 3.25807,4.52364 4.09375,2.25 0.67468,-1.83561 -2.90333,-13.06152 -4.3125,-13.53125 -0.0829,-0.0276 -0.1586,-0.0397 -0.25,-0.0312 z m 210.31962,138.12631 c 0.0618,59.5579 -103.19324,105.06908 -169.39747,343.84252 -3.36186,12.12497 -4.19685,20.73278 -8.51227,36.76336 -3.81782,14.18214 -5.85278,18.05473 -8.67714,22.49704 -3.74309,5.88736 -13.44599,14.0084 -17.77331,17.8124 -5.0955,4.4793 -17.04746,12.4201 -20.68553,13.9272 -4.12817,1.71013 -5.59989,6.7978 -6.74399,27.5 -1.13082,20.4617 -1.17237,94.0164 -0.059,104.5 0.85664,8.06652 2.91804,13.84272 8.65149,24.24202 2.09679,3.8031 3.6659,4.3929 13.63444,5.125 4.79828,0.3524 15.05654,2.9315 18.80633,4.1913 3.03243,1.0188 7.11548,3.0182 8.68654,4.884 2.33345,2.7712 2.37453,3.0176 0.70651,4.2373 -0.97404,0.7122 -3.38031,1.5414 -5.34725,1.8427 -13.53091,2.0722 -14.30765,2.8464 -7.53255,7.5078 4.19924,2.8891 4.5023,3.3525 3.10611,4.7486 -1.37159,1.3716 -3.8507,1.4165 -21.84849,0.3958 -24.61867,-1.3962 -35.45588,-3.8203 -40.12021,-8.9744 -3.53651,-3.9078 0.53802,-9.7971 9.12072,-13.1831 2.98733,-1.1785 3.61463,-1.6931 3,-4.9098 -1.38692,-7.2584 -3.9575,-11.2529 -5.86884,-22.67863 -1.136,-6.79081 -1.92469,-16.40999 -1.86743,-63.94589 0.0604,-50.1414 -0.12745,-57.595 -1.55773,-61.8078 -2.11217,-6.2213 -4.29857,-8.6749 -7.73009,-8.6749 -6.08477,0 -11.23983,9.7307 -12.74957,24.0662 -1.46266,13.8883 1.19729,99.1145 0.29994,109.92079 -0.90715,10.92423 -9.01205,35.42783 -9.93769,42.18113 -0.52949,3.8631 -0.34449,4.6302 1.24377,5.1576 6.57394,2.183 12.36579,7.1826 12.36579,10.6743 0,3.3689 -2.43883,5.6551 -9.44643,8.2176 -5.87209,2.1473 -9.30971,3.0329 -20.55357,3.7814 -16.6096,1.1057 -32.1202,1.47 -33.49727,0 -1.5129,-1.609 5.24705,-5.558 7.03311,-6.4508 1.63159,-0.8156 1.60817,-1.9274 0.2176,-2.4286 -5.75301,-2.0734 -3.6422,-1.4459 -14.5264,-3.7587 -5.10815,-1.0854 -6.01465,-1.8385 -3.57736,-4.5317 4.2049,-4.6464 16.6673,-8.8346 26.28798,-8.8346 7.42967,0 13.70033,-2.3124 17.35534,-6.4 2.26487,-2.5329 10.41688,-34.0229 11.07772,-42.20127 0.73443,-9.08915 0.0525,-40.32425 -0.37543,-62.52805 -0.76249,-39.5631 -2.32958,-59.8898 -5.00218,-64.8836 -0.61495,-1.149 -2.0922,-1.9871 -3.50261,-1.9871 -5.34563,0 -7.4905,10.8276 -7.4905,37.813 0,10.5321 0.4537,24.8952 1.00822,31.9181 2.57699,32.6371 5.20362,58.01563 6.02486,59.19261 1.33512,1.91349 2.51123,1.99652 5.78635,3.16629 3.19002,1.13939 23.23465,2.57489 26.28334,3.50502 5.88946,1.7968 9.4226,2.6952 13.14335,5.8871 1.78933,1.5351 4.43745,4.7216 5.52473,7.5179 0.21789,0.5604 0.98195,3.4024 -3.77085,4.7898 -10.20558,2.9793 -15.06006,1.2031 -15.70109,2.8736 -0.30946,0.8065 0.28331,2.0573 1.31963,2.7847 4.73692,3.3246 7.49861,4.7443 6.07409,6.1899 -1.27941,1.2983 -21.12282,0.9448 -28.85626,0.4042 -5.24052,-0.3663 -21.89091,-3.7601 -24.26088,-6.8962 -3.24918,-4.2995 -2.89016,-11.2441 -1.03765,-16.1564 2.54675,-6.7533 2.85089,-11.52742 1.13464,-17.81072 -0.94896,-3.4742 -1.78534,-12.2787 -2.15437,-22.6789 -0.33177,-9.35 -1.01927,-27.125 -1.52778,-39.5 -0.50851,-12.375 -1.18777,-29.7 -1.50946,-38.5 -0.63817,-17.4577 -1.34058,-20.5518 -5.12544,-22.5774 -3.47179,-1.858 -7.19294,0.2874 -9.95243,5.7381 -2.30042,4.544 -2.08874,1.124 -4.91073,79.3393 -0.95658,26.513 -1.86764,40.2445 -3.10953,46.86729 -1.74535,9.30773 -1.74251,9.40963 0.44502,16.00003 4.2734,12.8746 3.28587,18.2237 -4.17119,22.5938 -3.53742,2.0731 -5.58085,2.3429 -11.34005,2.9853 -6.40337,0.7143 -17.70141,1.6955 -23.93992,1.7991 -13.09605,0.2175 -15.21579,-0.6589 -11.40519,-4.7151 1.28971,-1.3728 3.3271,-2.4556 4.18676,-3.0806 2.17995,-1.5847 2.44665,-3.2805 0.41819,-4.0589 -0.783,-0.3004 -5.39037,-0.8488 -10.23859,-1.2186 -10.30621,-0.786 -11.20334,-1.8728 -6.79607,-8.2325 3.81766,-5.5089 10.79193,-8.6516 21.96804,-9.8992 10.58072,-1.1811 18.98256,-3.4897 21.61054,-5.938 1.0315,-0.961 3.06992,-4.6397 4.52983,-8.17492 2.40187,-5.8162 2.72814,-8.1876 3.42971,-24.9277 0.42644,-10.175 0.80792,-37.2607 0.84776,-60.1904 l 0.0724,-41.6904 c 0,0 -0.10891,-0.94124 -2.61782,-7.2572 -1.566,-3.94224 -5.00499,-12.0058 -7.92264,-17.8096 -6.94241,-13.8099 -9.79818,-20.4479 -11.42331,-26.5524 -0.73209,-2.75 -1.65009,-5.36285 -2.03999,-5.80633 -1.3373,-1.52109 -13.83768,9.85963 -22.13171,20.14943 -8.01562,9.9444 -9.8528,14.78096 -12.31523,25.58167 -1.12162,4.91966 -2.51778,8.08683 1.00574,13.79543 3.25518,5.2738 3.61836,6.498 3.08409,10.396 -0.89156,6.5047 -7.53166,18.1863 -9.60805,16.903 -0.4612,-0.285 -1.14432,-5.131 -1.51803,-10.7687 -0.73041,-11.0189 -0.39361,-15.15731 6.03362,-38.84451 3.68417,-13.5779 6.85989,-18.77509 15.77002,-28.02129 3.95082,-4.0998 8.30831,-8.92611 9.68331,-10.72509 1.375,-1.79898 3.30946,-4.24001 4.29879,-5.42451 0.98934,-1.1845 3.15082,-4.98656 4.8033,-8.44902 2.84198,-5.95482 3.11089,-7.63399 4.9711,-31.04073 2.88131,-36.25517 4.80853,-45.59521 11.9788,-58.05371 4.31499,-7.49741 15.66837,-14.97452 22.9824,-15.13577 1.76982,-0.039 3.10883,-1.03634 4.43851,-3.30587 3.25294,-5.55223 11.68629,-17.06712 15.44218,-21.08473 5.80792,-6.21265 10.23086,-7.98652 18.52851,-7.43108 7.88645,0.52792 18.47717,4.75367 22.24088,8.87423 1.20146,1.31537 4.00051,6.07218 6.22012,10.57069 3.63296,7.363 6.664,11.17925 14.31056,18.01785 1.56897,1.40318 3.45346,5.37753 5.2158,11 1.5176,4.84167 5.49095,20.06216 6.6093,26.71215 1.11834,6.64999 2.50283,13.55684 3.07664,15.34857 1.14066,3.56173 3.86137,5.57163 6.28378,4.64206 1.63932,-0.62906 5.06439,-7.66183 8.07006,-15.89974 4.26102,-11.67857 7.40202,-26.20714 8.50421,-30 1.49536,-5.14583 4.12349,-38.7247 9.91712,-53 11.36644,-28.00654 42.8083,-78.73649 76.09938,-133.0234 34.07523,-55.5656 80.68577,-112.0083 79.92788,-129.99769 -1.48969,-35.35945 -15.23296,-51.09396 -36.57698,-63.10399 -3.94094,-2.21751 -7.37747,-4.66169 -7.625,-5.40625 -0.25104,-0.75513 2.5633,-4.1469 6.375,-7.6875 3.75837,-3.49108 6.51936,-6.66815 6.125,-7.0625 -1.32206,-1.32208 -5.39697,1.75207 -11.5,8.6875 -14.57238,16.55995 -30.32779,27.66247 -46.8125,33.03125 -10.80761,3.51984 -29.95665,2.94038 -41.90625,-1.28125 -9.54151,-3.37089 -15.2858,-5.91558 -26.5,-11.71875 -6.87499,-3.55771 -14.34617,-7.93993 -17,-8.75 -8.34253,-2.5465 -14.46422,-2.40512 -18.5,-2.5 -3.00996,-0.0708 -14.6249,0.0358 -21.5,2.4375 -17.59381,6.14626 -47.99071,5.88847 -57.28125,4.96875 -6.69342,-0.66261 -13.06767,-1.79457 -16.78125,-3.6875 -2.36874,-1.20741 -6.89437,-5.00466 -7.8125,-7.5 -0.83377,-2.26604 -1.4457,-5.17484 -1.21875,-13.0625 0.21662,-7.52967 1.69102,-14.69801 6.78125,-28.5 3.0548,-8.28297 17.3612,-38.51467 18.21875,-38.5 0.32709,0.006 1.35959,1.80559 2.28125,4 0.92165,2.19441 2.15915,4 2.75,4 1.74361,0 1.20552,-4.26415 -0.9375,-7.5 -2.655,-4.00889 -2.57179,-4.82005 1.5625,-14.59375 8.449,-19.97393 11.76503,-23.9431 23.46875,-28.28125 14.40227,-5.33843 42.799,-12.30708 61.96875,-15.1875 21.20297,-3.18591 24.09789,-3.98673 40.5625,-11.46875 2.22967,-1.01321 6.50465,-3.51465 9.5,-5.53125 2.99538,-2.01659 6.67402,-4.31033 8.1875,-5.09375 3.07776,-1.59314 18.94091,-4.13303 28.5,-4.5625 4.97824,-0.22368 4.82143,-0.0493 6.25,-1.875 0.87543,-1.11875 6.65533,-8.28275 12.6875,-13.0625 0.96647,-0.76581 1.51461,-1.13802 2.15625,-1.0625 0.64164,0.0755 1.79099,0.23373 2.6875,1.625 1.32103,2.05007 1.71209,3.37123 2.03125,7.15625 0.85346,10.12137 -1.16912,9.68918 -7.21875,9.1875 -5.98267,-0.49613 -6.90453,1.08396 -1.53125,2.625 2.28405,0.65506 6.21641,0.5275 13.9375,-1.25 15.20321,-3.5 24.21875,-2.125 24.21875,-2.125 l 10.375,14 c 5.30545,7.34076 10.73928,6.43142 18.78125,-3.125 2.40374,-2.8564 14.16395,-15.9125 15.5625,-17.5625 3.89701,-4.59763 6.77791,-6.18253 10.21875,-7.3125 1.86275,-0.61173 3.55423,-0.49816 6.15625,1.78125 1.76703,1.54795 4.28187,3.9466 5.375,10.40625 0.90641,5.35624 0.42688,11.4615 -1.4375,16.90625 -1.45062,4.23645 -3.60372,8.18965 -9.84375,13.09375 -5.36728,4.21821 -7.272,5.10919 -12.46875,5.84375 -7.39729,1.0456 -9.31094,2.8604 -7.21875,6.90625 0.76516,1.47967 6.35451,9.79394 8.59375,13.25 14.28716,22.05086 27.2671,58.7983 35.84375,101.53125 7.02952,35.02445 9.33423,61.47211 9.38212,107.59506 l -2e-5,4e-4 0,0.005 z"
       sodipodi:nodetypes="csssssccsccssssccssssssssccsssssssssssscccssssssssccssssssssssssssssssssssssssssssssssssssssssssssssssssssssssssssssssssssssssssccssssssssssssssssssssssssssssssssssssssssssssssssssssssssssssssssssssccsssssssssssscc" />
    <text
       xml:space="preserve"
       style="font-size:40px;font-style:normal;font-weight:normal;fill:#000000;fill-opacity:1;stroke:none;font-family:Bitstream Vera Sans"
       x="103.23759"
       y="391.92444"
       id="text5093"><tspan
         sodipodi:role="line"
         id="tspan5095"
         x="103.23759"
         y="391.92444" /></text>
  </g>
</svg>
