<?xml version="1.0" encoding="UTF-8" standalone="no"?>
<!-- Created with Inkscape (http://www.inkscape.org/) -->

<svg
   xmlns:dc="http://purl.org/dc/elements/1.1/"
   xmlns:cc="http://creativecommons.org/ns#"
   xmlns:rdf="http://www.w3.org/1999/02/22-rdf-syntax-ns#"
   xmlns:svg="http://www.w3.org/2000/svg"
   xmlns="http://www.w3.org/2000/svg"
   xmlns:xlink="http://www.w3.org/1999/xlink"
   xmlns:sodipodi="http://sodipodi.sourceforge.net/DTD/sodipodi-0.dtd"
   xmlns:inkscape="http://www.inkscape.org/namespaces/inkscape"
   width="88.582672"
   height="88.582672"
   id="svg8637"
   version="1.1"
   inkscape:version="0.48.4 r9939"
   sodipodi:docname="camelia-p6.svg"
   inkscape:export-filename="/home/webmind/Pictures/works/buttons/perl/camelia-p6-3.png"
   inkscape:export-xdpi="300"
   inkscape:export-ydpi="300">
  <defs
     id="defs8639">
    <clipPath
       id="clipPath17">
      <path
         inkscape:connector-curvature="0"
         d="m 0,-0.1 792.1,0 0,612.1 L 0,612 0,-0.1 z"
         id="path19" />
    </clipPath>
  </defs>
  <sodipodi:namedview
     id="base"
     pagecolor="#ffffff"
     bordercolor="#666666"
     borderopacity="1.0"
     inkscape:pageopacity="0.0"
     inkscape:pageshadow="2"
     inkscape:zoom="4.8345161"
     inkscape:cx="39.911785"
     inkscape:cy="43.686461"
     inkscape:document-units="mm"
     inkscape:current-layer="layer1"
     showgrid="false"
     units="mm"
     borderlayer="true"
     inkscape:window-width="1280"
     inkscape:window-height="719"
     inkscape:window-x="0"
     inkscape:window-y="28"
     inkscape:window-maximized="1" />
  <metadata
     id="metadata8642">
    <rdf:RDF>
      <cc:Work
         rdf:about="">
        <dc:format>image/svg+xml</dc:format>
        <dc:type
           rdf:resource="http://purl.org/dc/dcmitype/StillImage" />
        <dc:title></dc:title>
      </cc:Work>
    </rdf:RDF>
  </metadata>
  <g
     inkscape:label="Layer 1"
     inkscape:groupmode="layer"
     id="layer1"
     transform="translate(0,-963.77951)">
    <path
       sodipodi:type="arc"
       style="fill:none;fill-rule:evenodd;stroke:#000000;stroke-width:0.35433070999999999;stroke-linecap:butt;stroke-linejoin:miter;stroke-opacity:1;stroke-miterlimit:4;stroke-dasharray:none;fill-opacity:0"
       id="path9324"
       sodipodi:cx="46.747181"
       sodipodi:cy="47.730598"
       sodipodi:rx="43.127377"
       sodipodi:ry="43.127377"
       d="m 89.874557,47.730598 c 0,23.818593 -19.308784,43.127377 -43.127376,43.127377 -23.818592,0 -43.1273766,-19.308784 -43.1273766,-43.127377 0,-23.818592 19.3087846,-43.1273761 43.1273766,-43.1273761 23.818592,0 43.127376,19.3087841 43.127376,43.1273761 z"
       transform="translate(-2.4558449,960.34025)" />
    <g
       transform="matrix(0.10398442,0,0,-0.10398442,2.998829,1047.3363)"
       id="g11">
      <g
         id="g13">
        <g
           clip-path="url(#clipPath17)"
           id="g15">
          <path
             inkscape:connector-curvature="0"
             d="M 304.2,75.7 C 248.8,35.1 174.7,42.1 138.6,91.4 c -36,49.2 -20.3,122 35.1,162.5 55.3,40.6 129.5,33.6 165.5,-15.6 36.1,-49.3 20.4,-122.1 -35,-162.6 z"
             id="path21"
             style="fill:#000000;fill-opacity:1;fill-rule:evenodd;stroke:none" />
          <g
             id="g23">
            <path
               inkscape:connector-curvature="0"
               d="M 304.2,75.7 C 248.8,35.1 174.7,42.1 138.6,91.4 c -36,49.2 -20.3,122 35.1,162.5 55.3,40.6 129.5,33.6 165.5,-15.6 36.1,-49.3 20.4,-122.1 -35,-162.6 z"
               id="path25"
               style="fill:none;stroke:#000000;stroke-width:4.30158997;stroke-linecap:butt;stroke-linejoin:round;stroke-miterlimit:10;stroke-opacity:1;stroke-dasharray:none" />
          </g>
          <path
             inkscape:connector-curvature="0"
             d="m 273.6,523.5 c 68.9,-50.4 88.4,-140.9 43.5,-202.1 -44.8,-61.2 -137,-69.9 -205.8,-19.5 -68.9,50.4 -88.4,141 -43.6,202.2 44.9,61.2 137,69.9 205.9,19.4 z"
             id="path27"
             style="fill:#000000;fill-opacity:1;fill-rule:evenodd;stroke:none" />
          <g
             id="g29">
            <path
               inkscape:connector-curvature="0"
               d="m 273.6,523.5 c 68.9,-50.4 88.4,-140.9 43.5,-202.1 -44.8,-61.2 -137,-69.9 -205.8,-19.5 -68.9,50.4 -88.4,141 -43.6,202.2 44.9,61.2 137,69.9 205.9,19.4 z"
               id="path31"
               style="fill:none;stroke:#000000;stroke-width:7.1882;stroke-linecap:butt;stroke-linejoin:round;stroke-miterlimit:10;stroke-opacity:1;stroke-dasharray:none" />
          </g>
          <path
             inkscape:connector-curvature="0"
             d="m 213.3,370.5 c -25.8,21.2 -27.3,62.2 -3.3,91.4 24.1,29.3 64.5,35.9 90.3,14.6 25.9,-21.2 27.4,-62.1 3.3,-91.4 -24,-29.3 -64.4,-35.8 -90.3,-14.6 z"
             id="path33"
             style="fill:#00ff00;fill-opacity:1;fill-rule:evenodd;stroke:none" />
          <g
             id="g35">
            <path
               inkscape:connector-curvature="0"
               d="m 213.3,370.5 c -25.8,21.2 -27.3,62.2 -3.3,91.4 24.1,29.3 64.5,35.9 90.3,14.6 25.9,-21.2 27.4,-62.1 3.3,-91.4 -24,-29.3 -64.4,-35.8 -90.3,-14.6 z"
               id="path37"
               style="fill:none;stroke:none" />
          </g>
          <path
             inkscape:connector-curvature="0"
             d="m 191.7,375.8 c -25.9,21.3 -27.4,62.2 -3.4,91.5 24.1,29.3 64.6,35.8 90.4,14.6 25.9,-21.2 27.4,-62.2 3.3,-91.5 -24,-29.3 -64.5,-35.8 -90.3,-14.6 z"
             id="path39"
             style="fill:#000000;fill-opacity:1;fill-rule:evenodd;stroke:none" />
          <g
             id="g41">
            <path
               inkscape:connector-curvature="0"
               d="m 191.7,375.8 c -25.9,21.3 -27.4,62.2 -3.4,91.5 24.1,29.3 64.6,35.8 90.4,14.6 25.9,-21.2 27.4,-62.2 3.3,-91.5 -24,-29.3 -64.5,-35.8 -90.3,-14.6 z"
               id="path43"
               style="fill:none;stroke:none" />
          </g>
          <g
             id="g45">
            <path
               inkscape:connector-curvature="0"
               d="m 245.6,311.6 c -41.6,27.7 -99.1,49.2 -123.8,86.2 -18.4,27.5 -39.3,38.3 -17.3,65.5 21,25.7 32.7,53.3 61.9,57.9 32.8,-4.4 58.3,-7.3 79.3,-43.8 -2.4,-21.4 4.8,-66.6 -23,-88.1 l -48.1,-26.7"
               id="path47"
               style="fill:none;stroke:#0000ff;stroke-width:21.56459045;stroke-linecap:butt;stroke-linejoin:round;stroke-miterlimit:10;stroke-opacity:1;stroke-dasharray:none" />
          </g>
          <path
             inkscape:connector-curvature="0"
             d="m 175,400.5 c -23.8,0 -43.1,18.9 -43.1,42.3 0,23.4 19.3,42.3 43.1,42.3 23.8,0 43.1,-18.9 43.1,-42.3 0,-23.4 -19.3,-42.3 -43.1,-42.3 z"
             id="path49"
             style="fill:#ff3366;fill-opacity:1;fill-rule:evenodd;stroke:none" />
          <g
             id="g51">
            <path
               inkscape:connector-curvature="0"
               d="m 175,400.5 c -23.8,0 -43.1,18.9 -43.1,42.3 0,23.4 19.3,42.3 43.1,42.3 23.8,0 43.1,-18.9 43.1,-42.3 0,-23.4 -19.3,-42.3 -43.1,-42.3 z"
               id="path53"
               style="fill:none;stroke:none" />
          </g>
          <path
             inkscape:connector-curvature="0"
             d="m 194.2,418.9 c -8.9,-7.3 -22.2,-5.9 -29.7,3.2 -7.5,9.1 -6.3,22.4 2.7,29.7 8.9,7.3 22.2,5.9 29.6,-3.2 7.5,-9.1 6.3,-22.4 -2.6,-29.7 z"
             id="path55"
             style="fill:#0000ff;fill-opacity:1;fill-rule:evenodd;stroke:none" />
          <g
             id="g57">
            <path
               inkscape:connector-curvature="0"
               d="m 194.2,418.9 c -8.9,-7.3 -22.2,-5.9 -29.7,3.2 -7.5,9.1 -6.3,22.4 2.7,29.7 8.9,7.3 22.2,5.9 29.6,-3.2 7.5,-9.1 6.3,-22.4 -2.6,-29.7 z"
               id="path59"
               style="fill:none;stroke:none" />
          </g>
          <g
             id="g61">
            <path
               inkscape:connector-curvature="0"
               d="m 249.3,308.8 c -41.7,27.8 -104.7,27.8 -129.4,64.7 -18.4,27.6 -50.3,63.1 -28.3,90.2 20.1,31.9 45.6,53.8 77.5,53.8 32.9,-4.3 66.7,-17 74.7,-42.8 -2.3,-21.5 2.1,-55.4 -25.7,-76.9 l -45.3,-36.1"
               id="path63"
               style="fill:none;stroke:#0000ff;stroke-width:21.56459045;stroke-linecap:butt;stroke-linejoin:round;stroke-miterlimit:10;stroke-opacity:1;stroke-dasharray:none" />
          </g>
          <path
             inkscape:connector-curvature="0"
             d="m 268,298 c -2.9,-5.1 -15.3,-3.4 -27.6,3.7 -12.4,7.1 -20,17 -17.1,22.1 3,5 15.3,3.4 27.7,-3.7 12.3,-7.2 20,-17 17,-22.1 z"
             id="path65"
             style="fill:#0000ff;fill-opacity:1;fill-rule:evenodd;stroke:none" />
          <g
             id="g67">
            <path
               inkscape:connector-curvature="0"
               d="m 268,298 c -2.9,-5.1 -15.3,-3.4 -27.6,3.7 -12.4,7.1 -20,17 -17.1,22.1 3,5 15.3,3.4 27.7,-3.7 12.3,-7.2 20,-17 17,-22.1 z"
               id="path69"
               style="fill:none;stroke:none" />
          </g>
          <path
             inkscape:connector-curvature="0"
             d="M 629.1,253 C 684.4,212.5 700.1,139.6 664,90.4 627.9,41.1 553.8,34.1 498.4,74.6 c -55.3,40.6 -71,113.4 -34.9,162.6 36.1,49.3 110.2,56.4 165.6,15.8 z"
             id="path71"
             style="fill:#000000;fill-opacity:1;fill-rule:evenodd;stroke:none" />
          <g
             id="g73">
            <path
               inkscape:connector-curvature="0"
               d="M 629.1,253 C 684.4,212.5 700.1,139.6 664,90.4 627.9,41.1 553.8,34.1 498.4,74.6 c -55.3,40.6 -71,113.4 -34.9,162.6 36.1,49.3 110.2,56.4 165.6,15.8 z"
               id="path75"
               style="fill:none;stroke:#000000;stroke-width:4.30158997;stroke-linecap:butt;stroke-linejoin:round;stroke-miterlimit:10;stroke-opacity:1;stroke-dasharray:none" />
          </g>
          <path
             inkscape:connector-curvature="0"
             d="m 399.5,162 c -64,0 -115.8,41.4 -115.8,92.6 0,51.1 51.8,92.6 115.8,92.6 64,0 115.8,-41.5 115.8,-92.6 0,-51.2 -51.8,-92.6 -115.8,-92.6 z"
             id="path77"
             style="fill:#ffff00;fill-opacity:1;fill-rule:evenodd;stroke:none" />
          <g
             id="g79">
            <path
               inkscape:connector-curvature="0"
               d="m 399.5,162 c -64,0 -115.8,41.4 -115.8,92.6 0,51.1 51.8,92.6 115.8,92.6 64,0 115.8,-41.5 115.8,-92.6 0,-51.2 -51.8,-92.6 -115.8,-92.6 z"
               id="path81"
               style="fill:none;stroke:#000000;stroke-width:8.63150024;stroke-linecap:butt;stroke-linejoin:round;stroke-miterlimit:10;stroke-opacity:1;stroke-dasharray:none" />
          </g>
          <path
             inkscape:connector-curvature="0"
             d="m 320.1,255.7 c -25.6,0 -46.3,20.8 -46.3,46.3 0,25.6 20.7,46.3 46.3,46.3 25.6,0 46.4,-20.7 46.4,-46.3 0,-25.5 -20.8,-46.3 -46.4,-46.3 z"
             id="path83"
             style="fill:#ffffff;fill-opacity:1;fill-rule:evenodd;stroke:none" />
          <g
             id="g85">
            <path
               inkscape:connector-curvature="0"
               d="m 320.1,255.7 c -25.6,0 -46.3,20.8 -46.3,46.3 0,25.6 20.7,46.3 46.3,46.3 25.6,0 46.4,-20.7 46.4,-46.3 0,-25.5 -20.8,-46.3 -46.4,-46.3 z"
               id="path87"
               style="fill:none;stroke:#000000;stroke-width:10.07479;stroke-linecap:butt;stroke-linejoin:round;stroke-miterlimit:10;stroke-opacity:1;stroke-dasharray:none" />
          </g>
          <path
             inkscape:connector-curvature="0"
             d="m 683.4,296.3 c -68.4,-50.1 -160,-41.4 -204.5,19.4 -44.6,60.8 -25.2,150.7 43.2,200.9 68.4,50.1 160,41.4 204.5,-19.4 44.6,-60.9 25.2,-150.8 -43.2,-200.9 z"
             id="path89"
             style="fill:#000000;fill-opacity:1;fill-rule:evenodd;stroke:none" />
          <g
             id="g91">
            <path
               inkscape:connector-curvature="0"
               d="m 683.4,296.3 c -68.4,-50.1 -160,-41.4 -204.5,19.4 -44.6,60.8 -25.2,150.7 43.2,200.9 68.4,50.1 160,41.4 204.5,-19.4 44.6,-60.9 25.2,-150.8 -43.2,-200.9 z"
               id="path93"
               style="fill:none;stroke:#000000;stroke-width:7.1882;stroke-linecap:butt;stroke-linejoin:round;stroke-miterlimit:10;stroke-opacity:1;stroke-dasharray:none" />
          </g>
          <path
             inkscape:connector-curvature="0"
             d="m 698.5,335.2 c -25.7,-21.1 -65.9,-14.5 -89.8,14.6 -23.9,29.1 -22.5,69.8 3.2,90.9 25.7,21.1 65.9,14.6 89.8,-14.6 23.9,-29.1 22.5,-69.8 -3.2,-90.9 z"
             id="path95"
             style="fill:#00ff00;fill-opacity:1;fill-rule:evenodd;stroke:none" />
          <g
             id="g97">
            <path
               inkscape:connector-curvature="0"
               d="m 698.5,335.2 c -25.7,-21.1 -65.9,-14.5 -89.8,14.6 -23.9,29.1 -22.5,69.8 3.2,90.9 25.7,21.1 65.9,14.6 89.8,-14.6 23.9,-29.1 22.5,-69.8 -3.2,-90.9 z"
               id="path99"
               style="fill:none;stroke:none" />
          </g>
          <path
             inkscape:connector-curvature="0"
             d="m 677.1,335.2 c -25.7,-21.1 -65.9,-14.5 -89.8,14.6 -23.9,29.1 -22.5,69.8 3.2,90.8 25.7,21.1 65.9,14.6 89.8,-14.5 23.9,-29.1 22.4,-69.8 -3.2,-90.9 z"
             id="path101"
             style="fill:#000000;fill-opacity:1;fill-rule:evenodd;stroke:none" />
          <g
             id="g103">
            <path
               inkscape:connector-curvature="0"
               d="m 677.1,335.2 c -25.7,-21.1 -65.9,-14.5 -89.8,14.6 -23.9,29.1 -22.5,69.8 3.2,90.8 25.7,21.1 65.9,14.6 89.8,-14.5 23.9,-29.1 22.4,-69.8 -3.2,-90.9 z"
               id="path105"
               style="fill:none;stroke:none" />
          </g>
          <g
             id="g107">
            <path
               inkscape:connector-curvature="0"
               d="m 705.7,464.7 c -18,58.1 -98.5,38.2 -128.5,18.1 -41.4,-27.6 -36.2,-22.1 -60.7,-58.8 -18.3,-27.5 -8.4,-63.6 13.5,-90.6 20.7,-25.6 29,-13.8 61.6,-9.5 32.6,4.3 41.5,5.4 49.4,31 9.9,32.1 -22.1,65.3 -49.7,86.6 L 560.2,463"
               id="path109"
               style="fill:none;stroke:#0000ff;stroke-width:21.56459045;stroke-linecap:butt;stroke-linejoin:round;stroke-miterlimit:10;stroke-opacity:1;stroke-dasharray:none" />
          </g>
          <path
             inkscape:connector-curvature="0"
             d="m 569.2,345.3 c -21,0 -37.9,17.2 -37.9,38.5 0,21.3 16.9,38.5 37.9,38.5 20.9,0 37.8,-17.2 37.8,-38.5 0,-21.3 -16.9,-38.5 -37.8,-38.5 z"
             id="path111"
             style="fill:#ff3366;fill-opacity:1;fill-rule:evenodd;stroke:none" />
          <g
             id="g113">
            <path
               inkscape:connector-curvature="0"
               d="m 569.2,345.3 c -21,0 -37.9,17.2 -37.9,38.5 0,21.3 16.9,38.5 37.9,38.5 20.9,0 37.8,-17.2 37.8,-38.5 0,-21.3 -16.9,-38.5 -37.8,-38.5 z"
               id="path115"
               style="fill:none;stroke:none" />
          </g>
          <path
             inkscape:connector-curvature="0"
             d="m 582.5,361.7 c -8.9,-7.2 -22.1,-5.8 -29.5,3.3 -7.4,9 -6.3,22.3 2.5,29.5 8.8,7.3 22.1,5.8 29.5,-3.2 7.4,-9.1 6.3,-22.3 -2.5,-29.6 z"
             id="path117"
             style="fill:#0000ff;fill-opacity:1;fill-rule:evenodd;stroke:none" />
          <g
             id="g119">
            <path
               inkscape:connector-curvature="0"
               d="m 582.5,361.7 c -8.9,-7.2 -22.1,-5.8 -29.5,3.3 -7.4,9 -6.3,22.3 2.5,29.5 8.8,7.3 22.1,5.8 29.5,-3.2 7.4,-9.1 6.3,-22.3 -2.5,-29.6 z"
               id="path121"
               style="fill:none;stroke:none" />
          </g>
          <g
             id="g123">
            <path
               inkscape:connector-curvature="0"
               d="m 711.2,466.5 c -18,58.1 -116.7,47.3 -146.7,27.2 -41.4,-27.6 -35.3,-22.2 -59.8,-58.9 -18.3,-27.4 -2,-76.9 19.9,-103.9 20.7,-25.6 35.8,-19.8 68.3,-15.5 32.6,4.3 44,3.5 52,29.2 9.9,32 4,71.5 -23.7,92.9 l -61,25.5"
               id="path125"
               style="fill:none;stroke:#0000ff;stroke-width:21.56459045;stroke-linecap:butt;stroke-linejoin:round;stroke-miterlimit:10;stroke-opacity:1;stroke-dasharray:none" />
          </g>
          <path
             inkscape:connector-curvature="0"
             d="m 473.4,255.7 c -25.6,0 -46.4,20.8 -46.4,46.3 0,25.6 20.8,46.3 46.4,46.3 25.6,0 46.3,-20.7 46.3,-46.3 0,-25.5 -20.7,-46.3 -46.3,-46.3 z"
             id="path127"
             style="fill:#ffffff;fill-opacity:1;fill-rule:evenodd;stroke:none" />
          <g
             id="g129">
            <path
               inkscape:connector-curvature="0"
               d="m 473.4,255.7 c -25.6,0 -46.4,20.8 -46.4,46.3 0,25.6 20.8,46.3 46.4,46.3 25.6,0 46.3,-20.7 46.3,-46.3 0,-25.5 -20.7,-46.3 -46.3,-46.3 z"
               id="path131"
               style="fill:none;stroke:#000000;stroke-width:10.07479;stroke-linecap:butt;stroke-linejoin:round;stroke-miterlimit:10;stroke-opacity:1;stroke-dasharray:none" />
          </g>
          <path
             inkscape:connector-curvature="0"
             d="m 321.5,279 c -12.8,0 -23.2,10.4 -23.2,23.2 0,12.8 10.4,23.2 23.2,23.2 12.8,0 23.1,-10.4 23.1,-23.2 0,-12.8 -10.3,-23.2 -23.1,-23.2 z"
             id="path133"
             style="fill:#000000;fill-opacity:1;fill-rule:evenodd;stroke:none" />
          <g
             id="g135">
            <path
               inkscape:connector-curvature="0"
               d="m 321.5,279 c -12.8,0 -23.2,10.4 -23.2,23.2 0,12.8 10.4,23.2 23.2,23.2 12.8,0 23.1,-10.4 23.1,-23.2 0,-12.8 -10.3,-23.2 -23.1,-23.2 z"
               id="path137"
               style="fill:none;stroke:none" />
          </g>
          <path
             inkscape:connector-curvature="0"
             d="m 475.1,281.6 c -12.9,0 -23.2,10.4 -23.2,23.1 0,12.8 10.3,23.1 23.2,23.1 12.8,0 23.1,-10.3 23.1,-23.1 0,-12.7 -10.3,-23.1 -23.1,-23.1 z"
             id="path139"
             style="fill:#000000;fill-opacity:1;fill-rule:evenodd;stroke:none" />
          <g
             id="g141">
            <path
               inkscape:connector-curvature="0"
               d="m 475.1,281.6 c -12.9,0 -23.2,10.4 -23.2,23.1 0,12.8 10.3,23.1 23.2,23.1 12.8,0 23.1,-10.3 23.1,-23.1 0,-12.7 -10.3,-23.1 -23.1,-23.1 z"
               id="path143"
               style="fill:none;stroke:none" />
          </g>
          <g
             id="g145">
            <path
               inkscape:connector-curvature="0"
               d="m 360,230 c -4.6,-31.7 87.5,-54.6 76.4,-5.4 l 0,2.7"
               id="path147"
               style="fill:none;stroke:#ff3366;stroke-width:12.93309021;stroke-linecap:butt;stroke-linejoin:round;stroke-miterlimit:10;stroke-opacity:1;stroke-dasharray:none" />
          </g>
          <g
             id="g149">
            <path
               inkscape:connector-curvature="0"
               d="m 385.1,348 c -1.9,25.2 7.3,53.8 -4.2,77.1 l -9.7,23.1 -12.6,-21.2 9.7,-1.9"
               id="path151"
               style="fill:none;stroke:#000000;stroke-width:10.07479;stroke-linecap:butt;stroke-linejoin:round;stroke-miterlimit:10;stroke-opacity:1;stroke-dasharray:none" />
          </g>
          <g
             id="g153">
            <path
               inkscape:connector-curvature="0"
               d="m 413.3,348 c 1.9,25.2 -7.4,53.8 4.1,77.1 l 9.7,23.1 12.6,-21.2 -9.7,-1.9"
               id="path155"
               style="fill:none;stroke:#000000;stroke-width:10.07479;stroke-linecap:butt;stroke-linejoin:round;stroke-miterlimit:10;stroke-opacity:1;stroke-dasharray:none" />
          </g>
          <path
             inkscape:connector-curvature="0"
             d="m 181.1,99.3 c -26.6,21.9 -27.5,64.8 -2,96 25.6,31.1 67.9,38.6 94.6,16.7 26.6,-21.9 27.5,-64.8 1.9,-95.9 C 250.1,84.9 207.8,77.4 181.1,99.3 z"
             id="path157"
             style="fill:#ff3366;fill-opacity:1;fill-rule:evenodd;stroke:none" />
          <g
             id="g159">
            <path
               inkscape:connector-curvature="0"
               d="m 181.1,99.3 c -26.6,21.9 -27.5,64.8 -2,96 25.6,31.1 67.9,38.6 94.6,16.7 26.6,-21.9 27.5,-64.8 1.9,-95.9 C 250.1,84.9 207.8,77.4 181.1,99.3 z"
               id="path161"
               style="fill:none;stroke:none" />
          </g>
          <g
             id="g163">
            <path
               inkscape:connector-curvature="0"
               d="m 375.5,161 0,-29.9 16.4,-27.2 0,0"
               id="path165"
               style="fill:none;stroke:#000000;stroke-width:8.63150024;stroke-linecap:butt;stroke-linejoin:round;stroke-miterlimit:10;stroke-opacity:1;stroke-dasharray:none" />
          </g>
          <g
             id="g167">
            <path
               inkscape:connector-curvature="0"
               d="m 412,161 0,-30 16.4,-27.2 0,0"
               id="path169"
               style="fill:none;stroke:#000000;stroke-width:8.63150024;stroke-linecap:butt;stroke-linejoin:round;stroke-miterlimit:10;stroke-opacity:1;stroke-dasharray:none" />
          </g>
          <path
             inkscape:connector-curvature="0"
             d="m 212.3,134.8 c -12,9.8 -10.1,32 4.3,49.5 14.4,17.6 35.7,23.8 47.8,13.9 11.9,-9.8 10,-32 -4.3,-49.6 -14.4,-17.5 -35.8,-23.7 -47.8,-13.8 z"
             id="path171"
             style="fill:#0000ff;fill-opacity:1;fill-rule:evenodd;stroke:none" />
          <g
             id="g173">
            <path
               inkscape:connector-curvature="0"
               d="m 212.3,134.8 c -12,9.8 -10.1,32 4.3,49.5 14.4,17.6 35.7,23.8 47.8,13.9 11.9,-9.8 10,-32 -4.3,-49.6 -14.4,-17.5 -35.8,-23.7 -47.8,-13.8 z"
               id="path175"
               style="fill:none;stroke:none" />
          </g>
          <path
             inkscape:connector-curvature="0"
             d="M 616.6,99.2 C 589.9,77.3 547.6,84.8 522,116 c -25.5,31.1 -24.6,74.1 2,95.9 26.7,21.9 69,14.4 94.6,-16.7 25.5,-31.2 24.6,-74.1 -2,-96 z"
             id="path177"
             style="fill:#ff3366;fill-opacity:1;fill-rule:evenodd;stroke:none" />
          <g
             id="g179">
            <path
               inkscape:connector-curvature="0"
               d="M 616.6,99.2 C 589.9,77.3 547.6,84.8 522,116 c -25.5,31.1 -24.6,74.1 2,95.9 26.7,21.9 69,14.4 94.6,-16.7 25.5,-31.2 24.6,-74.1 -2,-96 z"
               id="path181"
               style="fill:none;stroke:none" />
          </g>
          <path
             inkscape:connector-curvature="0"
             d="m 581.8,132 c -12,-9.8 -33.4,-3.6 -47.7,13.8 -14.4,17.5 -16.3,39.7 -4.2,49.5 11.9,9.9 33.3,3.7 47.7,-13.8 14.3,-17.4 16.2,-39.6 4.2,-49.5 z"
             id="path183"
             style="fill:#0000ff;fill-opacity:1;fill-rule:evenodd;stroke:none" />
          <g
             id="g185">
            <path
               inkscape:connector-curvature="0"
               d="m 581.8,132 c -12,-9.8 -33.4,-3.6 -47.7,13.8 -14.4,17.5 -16.3,39.7 -4.2,49.5 11.9,9.9 33.3,3.7 47.7,-13.8 14.3,-17.4 16.2,-39.6 4.2,-49.5 z"
               id="path187"
               style="fill:none;stroke:none" />
          </g>
          <g
             id="g189">
            <text
               transform="matrix(1,0,0,-1,658.4,245.8)"
               id="text191">
              <tspan
                 x="0 9.6960001"
                 y="0"
                 id="tspan193"
                 style="font-size:16px;font-variant:normal;writing-mode:lr-tb;fill:#808080;fill-opacity:1;fill-rule:nonzero;stroke:none;font-family:NimbusSanL;-inkscape-font-specification:NimbusSanL-Regu">TM</tspan>
            </text>
          </g>
          <path
             inkscape:connector-curvature="0"
             d="m 722.4,447.3 c -6.1,-4.2 -19.3,4.3 -29.6,19.1 -10.4,14.7 -13.8,30.1 -7.8,34.3 6,4.2 19.3,-4.3 29.6,-19.1 10.3,-14.7 13.8,-30.1 7.8,-34.3 z"
             id="path195"
             style="fill:#0000ff;fill-opacity:1;fill-rule:evenodd;stroke:none" />
          <g
             id="g197">
            <path
               inkscape:connector-curvature="0"
               d="m 722.4,447.3 c -6.1,-4.2 -19.3,4.3 -29.6,19.1 -10.4,14.7 -13.8,30.1 -7.8,34.3 6,4.2 19.3,-4.3 29.6,-19.1 10.3,-14.7 13.8,-30.1 7.8,-34.3 z"
               id="path199"
               style="fill:none;stroke:none" />
          </g>
        </g>
      </g>
    </g>
    <text
       xml:space="preserve"
       style="font-size:12px;font-style:normal;font-variant:normal;font-weight:600;font-stretch:normal;line-height:125%;letter-spacing:0px;word-spacing:0px;fill:#008100;fill-opacity:1;stroke:none;font-family:FreeSans;-inkscape-font-specification:FreeSans Semi-Bold"
       id="text9326"
       sodipodi:linespacing="125%"
       inkscape:export-xdpi="300"
       inkscape:export-ydpi="300"><textPath
         xlink:href="#path9330"
         id="textPath9335"><tspan
   id="tspan9328"
   style="-inkscape-font-specification:FreeSans Semi-Bold;font-family:FreeSans;font-weight:600;font-style:normal;font-stretch:normal;font-variant:normal;font-size:12px;fill:#008100;fill-opacity:1">perl6.org</tspan></textPath></text>
    <path
       style="fill:#ff0000;fill-opacity:0;fill-rule:evenodd;stroke:none;stroke-width:0.35433071999999999;stroke-linecap:butt;stroke-linejoin:miter;stroke-miterlimit:4;stroke-opacity:0.59793814999999995;stroke-dasharray:none"
       d="m 21.856056,984.73194 c 13.994313,-12.39065 35.383542,-11.09062 47.774181,2.90371 12.390636,13.99425 11.090601,35.38355 -2.903724,47.77405 -13.994315,12.3906 -35.383538,11.0907 -47.77418,-2.9037 -12.3441355,-13.9417 -11.1065636,-35.23659 2.769491,-47.65458"
       id="path9330"
       inkscape:connector-curvature="0" />
  </g>
</svg>
