<?xml version="1.0" encoding="UTF-8" standalone="no"?>
<!-- Created with Inkscape (http://www.inkscape.org/) -->

<svg
   xmlns:dc="http://purl.org/dc/elements/1.1/"
   xmlns:cc="http://creativecommons.org/ns#"
   xmlns:rdf="http://www.w3.org/1999/02/22-rdf-syntax-ns#"
   xmlns:svg="http://www.w3.org/2000/svg"
   xmlns="http://www.w3.org/2000/svg"
   xmlns:xlink="http://www.w3.org/1999/xlink"
   xmlns:sodipodi="http://sodipodi.sourceforge.net/DTD/sodipodi-0.dtd"
   xmlns:inkscape="http://www.inkscape.org/namespaces/inkscape"
   width="88.582672"
   height="88.582672"
   id="svg8637"
   version="1.1"
   inkscape:version="0.48.4 r9939"
   sodipodi:docname="onion-v2.svg"
   inkscape:export-filename="/home/webmind/Pictures/works/buttons/perl/onion-v1.png"
   inkscape:export-xdpi="299.72003"
   inkscape:export-ydpi="299.72003">
  <defs
     id="defs8639">
    <clipPath
       id="clipPath17">
      <path
         inkscape:connector-curvature="0"
         d="m 0,-0.1 792.1,0 0,612.1 L 0,612 0,-0.1 z"
         id="path19" />
    </clipPath>
  </defs>
  <sodipodi:namedview
     id="base"
     pagecolor="#ffffff"
     bordercolor="#666666"
     borderopacity="1.0"
     inkscape:pageopacity="0.0"
     inkscape:pageshadow="2"
     inkscape:zoom="3.6855725"
     inkscape:cx="-3.2257916"
     inkscape:cy="43.851338"
     inkscape:document-units="mm"
     inkscape:current-layer="layer1"
     showgrid="false"
     units="mm"
     borderlayer="true"
     inkscape:window-width="1280"
     inkscape:window-height="719"
     inkscape:window-x="0"
     inkscape:window-y="28"
     inkscape:window-maximized="1" />
  <metadata
     id="metadata8642">
    <rdf:RDF>
      <cc:Work
         rdf:about="">
        <dc:format>image/svg+xml</dc:format>
        <dc:type
           rdf:resource="http://purl.org/dc/dcmitype/StillImage" />
        <dc:title />
      </cc:Work>
    </rdf:RDF>
  </metadata>
  <g
     inkscape:label="Layer 1"
     inkscape:groupmode="layer"
     id="layer1"
     transform="translate(0,-963.77951)">
    <rect
       style="fill:#3b3c6b;fill-opacity:1;stroke:#000000;stroke-opacity:1;stroke-width:0.35433070999999999;stroke-miterlimit:4;stroke-dasharray:none"
       id="rect11915"
       width="141.0907"
       height="123.72569"
       x="-30.388767"
       y="947.62946" />
    <path
       sodipodi:type="arc"
       style="fill:#3b3c6b;stroke:#000000;stroke-width:0.35433071999999999;stroke-linecap:butt;stroke-linejoin:miter;stroke-miterlimit:4;stroke-opacity:0;stroke-dasharray:none;fill-opacity:1"
       id="path9324"
       sodipodi:cx="46.747181"
       sodipodi:cy="47.730598"
       sodipodi:rx="43.127377"
       sodipodi:ry="43.127377"
       d="m 89.874557,47.730598 c 0,23.818593 -19.308784,43.127377 -43.127376,43.127377 -23.818592,0 -43.1273766,-19.308784 -43.1273766,-43.127377 0,-23.818592 19.3087846,-43.1273761 43.1273766,-43.1273761 23.818592,0 43.127376,19.3087841 43.127376,43.1273761 z"
       transform="matrix(1.0071648,0,0,1.0071648,-2.7907791,959.99827)" />
    <g
       id="g11346"
       transform="matrix(0.01462036,0,0,-0.01462036,5.4011785,1042.004)">
      <path
         inkscape:connector-curvature="0"
         d="M 5315,2655 C 5315,1188.69 4126.31,0 2660,0 1193.68,0 5,1188.69 5,2655 5,4121.32 1193.68,5310 2660,5310 4126.31,5310 5315,4121.32 5315,2655"
         style="fill:#3b3c6c;fill-opacity:1;fill-rule:nonzero;stroke:none"
         id="path11348" />
      <path
         inkscape:connector-curvature="0"
         d="m 4509.55,2458.63 c -89.46,564.48 -681.68,930.12 -1122.67,1205.89 -192.66,120.46 -504.99,277.39 -545.38,530.75 -16.69,104.69 -16.08,212.87 -19.57,318.59 -1.39,41.51 -2.03,83.27 -5.74,124.66 -4.8,53.43 -59.17,-12.41 -88.97,34.21 -73.83,115.43 -45.41,-34.98 -38.15,-95.66 17.08,-142.76 37.14,-285.09 35.99,-429.18 -2.21,-275.38 -46.58,-539 -115.24,-804.3 -160.8,-621.36 -287.66,-1257.96 -128.59,-1893.79 32.97,-131.74 75.88,-261.71 132.25,-385.37 17.04,-37.39 49.66,-141.754 96.55,-154.254 168.86,-45.059 296.55,-58.106 431.41,-183.711 83.73,-77.996 146.53,-35.391 245.57,4.238 300,120.059 559.99,271.147 772.57,518.387 298.82,347.54 422.1,754.39 349.97,1209.54 m -317.3,-568.36 C 4165.64,1658.1 4020,1450.13 3871.29,1277.7 3763.48,1152.71 3617.64,990.5 3457.81,933.594 c -57.54,-20.496 10.53,94.616 18.97,107.306 49.48,74.4 110.45,140.04 167.06,208.87 83.76,101.8 156.3,208.65 205.32,331.93 162.77,409.14 125.78,905.07 -115.1,1273.65 -131.14,200.69 -311.13,370.3 -492.56,525.04 -87.67,74.77 -176.37,145.45 -250.14,234.93 -17.06,20.66 -167.72,217.89 -120.85,247.06 15.14,9.42 344.42,-336.95 380.23,-363.99 136.16,-102.82 276.2,-197.87 402.27,-313.64 170.62,-156.75 345.85,-331.84 443.6,-545.02 107.13,-233.58 124.56,-496.9 95.64,-749.46"
         style="fill:#ffffff;fill-opacity:1;fill-rule:nonzero;stroke:none"
         id="path11350" />
      <path
         inkscape:connector-curvature="0"
         d="m 2562.21,5238.44 c 49.43,-32.96 60.4,-225.18 60.4,-400.92 0,-175.78 16.48,-933.7 -38.44,-1136.92 -54.91,-203.22 -181.24,-428.41 -318.54,-626.13 -137.31,-197.72 -296.59,-615.13 -291.1,-873.26 5.48,-258.16 153.79,-681.05 269.13,-856.82 115.77,-176.41 312.3,-422.288 269.11,-477.827 -76.89,-98.86 -389.94,241.667 -554.71,439.377 -164.78,197.73 -329.55,598.69 -335.03,911.73 -5.5,313.07 170.25,604.17 296.58,779.9 126.33,175.77 373.47,477.84 439.39,615.14 65.89,137.31 137.3,285.59 159.27,477.84 21.97,192.24 0,878.78 0,878.78 0,0 -5.5,302.06 43.94,269.11"
         style="fill:#ffffff;fill-opacity:1;fill-rule:nonzero;stroke:none"
         id="path11352" />
      <path
         inkscape:connector-curvature="0"
         d="m 2430.39,4914.39 c 49.42,-21.96 54.92,-82.37 54.92,-142.8 0,-60.41 -16.48,-307.57 -32.95,-549.23 -16.48,-241.66 -208.7,-444.88 -351.51,-587.67 -142.79,-142.8 -554.72,-587.68 -708.51,-807.38 -153.78,-219.69 -230.41,-509.07 -214.19,-752.43 16.47,-247.17 76.88,-488.82 307.57,-746.97 230.67,-258.14 389.96,-378.957 510.77,-439.387 120.85,-60.386 241.68,-104.335 214.21,-159.273 -27.47,-54.914 -142.81,-16.457 -269.13,27.461 -126.32,43.965 -554.72,219.676 -801.88,499.809 -247.139,280.12 -373.463,653.59 -362.483,1010.6 10.977,356.99 109.856,505.28 274.613,735.95 164.77,230.68 620.63,571.19 763.43,659.07 142.81,87.88 335.02,236.18 428.41,357 93.36,120.84 142.79,219.72 137.29,384.49 -5.49,164.75 11,313.05 5.5,367.96 -5.5,54.93 -5.5,164.76 43.94,142.8"
         style="fill:#ffffff;fill-opacity:1;fill-rule:nonzero;stroke:none"
         id="path11354" />
      <path
         inkscape:connector-curvature="0"
         d="m 2444.14,609.219 c 22.34,0.898 8.24,-95.879 -31.21,-143.906 -39.45,-48.008 -107.17,-76.883 -115.4,-57.571 -8.27,19.328 48.91,30.442 90.88,77.16 38.54,42.903 28.35,123.203 55.73,124.317"
         style="fill:#ffffff;fill-opacity:1;fill-rule:nonzero;stroke:none"
         id="path11356" />
      <path
         inkscape:connector-curvature="0"
         d="m 2888.65,611.758 c -22.32,0.93 -8.21,-95.852 31.23,-143.86 39.44,-48.003 107.17,-76.914 115.39,-57.585 8.27,19.328 -48.91,30.429 -90.88,77.16 -38.54,42.871 -28.34,123.218 -55.74,124.285"
         style="fill:#ffffff;fill-opacity:1;fill-rule:nonzero;stroke:none"
         id="path11358" />
      <path
         inkscape:connector-curvature="0"
         d="m 2691.06,506.77 c 0,-84.536 4.31,-153.032 -14.13,-153.032 -22.73,0 -14.16,68.496 -14.16,153.032 0,84.519 -7.71,153.054 14.16,153.054 20.13,0 14.13,-68.535 14.13,-153.054"
         style="fill:#ffffff;fill-opacity:1;fill-rule:nonzero;stroke:none"
         id="path11360" />
    </g>
    <text
       xml:space="preserve"
       style="font-size:10px;font-style:normal;font-variant:normal;font-weight:normal;font-stretch:normal;line-height:125%;letter-spacing:0px;word-spacing:0px;fill:#ffffff;fill-opacity:1;stroke:none;font-family:Arial;-inkscape-font-specification:Arial;text-anchor:start;text-align:start;writing-mode:lr;stroke-opacity:1;stroke-width:0.35433070999999999;stroke-miterlimit:4;stroke-dasharray:none"
       id="text11401"
       sodipodi:linespacing="125%"><textPath
         xlink:href="#path11917"
         id="textPath11920"><tspan
   id="tspan11405"
   style="stroke:none;stroke-opacity:1;stroke-width:0.35433070999999999;stroke-miterlimit:4;stroke-dasharray:none">Powered by Perl</tspan></textPath></text>
    <path
       style="fill:#ff0000;fill-opacity:0;fill-rule:evenodd;stroke:none"
       d="m 13.175465,1033.2488 c 12.800807,17.1847 37.108961,20.7386 54.293791,7.9379 17.184831,-12.8008 20.738764,-37.1091 7.93796,-54.29364 -12.800813,-17.185 -37.108972,-20.73883 -54.293791,-7.93801 -17.1848335,12.80082 -20.73877846,37.10895 -7.93796,54.29375 z"
       id="path11917"
       inkscape:connector-curvature="0" />
  </g>
</svg>
